<svg width="34" height="36" viewBox="0 0 34 36" fill="none" xmlns="http://www.w3.org/2000/svg">
<g filter="url(#filter0_d_2_7448)">
<path d="M23.2498 10.9C23.0123 10.9 22.7748 10.8125 22.5873 10.625L20.0873 8.12502C19.7248 7.76252 19.7248 7.16252 20.0873 6.80002C20.4498 6.43752 21.0498 6.43752 21.4123 6.80002L23.2498 8.63752L27.5873 4.31252C27.9498 3.95002 28.5498 3.95002 28.9123 4.31252C29.2748 4.67502 29.2748 5.27502 28.9123 5.63752L23.9123 10.6375C23.7248 10.8 23.4873 10.9 23.2498 10.9Z" fill="url(#paint0_linear_2_7448)"/>
<path d="M15.8125 18.6875L13.5 21C13.0125 21.4875 12.2375 21.4875 11.7375 21.0125C11.6 20.875 11.4625 20.75 11.325 20.6125C10.0375 19.3125 8.875 17.95 7.8375 16.525C6.8125 15.1 5.9875 13.675 5.3875 12.2625C4.8 10.8375 4.5 9.475 4.5 8.175C4.5 7.325 4.65 6.5125 4.95 5.7625C5.25 5 5.725 4.3 6.3875 3.675C7.1875 2.8875 8.0625 2.5 8.9875 2.5C9.3375 2.5 9.6875 2.575 10 2.725C10.325 2.875 10.6125 3.1 10.8375 3.425L13.7375 7.5125C13.9625 7.825 14.125 8.1125 14.2375 8.3875C14.35 8.65 14.4125 8.9125 14.4125 9.15C14.4125 9.45 14.325 9.75 14.15 10.0375C13.9875 10.325 13.75 10.625 13.45 10.925L12.5 11.9125C12.3625 12.05 12.3 12.2125 12.3 12.4125C12.3 12.5125 12.3125 12.6 12.3375 12.7C12.375 12.8 12.4125 12.875 12.4375 12.95C12.6625 13.3625 13.05 13.9 13.6 14.55C14.1625 15.2 14.7625 15.8625 15.4125 16.525C15.5375 16.65 15.675 16.775 15.8 16.9C16.3 17.3875 16.3125 18.1875 15.8125 18.6875Z" fill="url(#paint1_linear_2_7448)"/>
<path d="M29.4625 22.9125C29.4625 23.2625 29.4 23.625 29.275 23.975C29.2375 24.075 29.2 24.175 29.15 24.275C28.9375 24.725 28.6625 25.15 28.3 25.55C27.6875 26.225 27.0125 26.7125 26.25 27.025C26.2375 27.025 26.225 27.0375 26.2125 27.0375C25.475 27.3375 24.675 27.5 23.8125 27.5C22.5375 27.5 21.175 27.2 19.7375 26.5875C18.3 25.975 16.8625 25.15 15.4375 24.1125C14.95 23.75 14.4625 23.3875 14 23L18.0875 18.9125C18.4375 19.175 18.75 19.375 19.0125 19.5125C19.075 19.5375 19.15 19.575 19.2375 19.6125C19.3375 19.65 19.4375 19.6625 19.55 19.6625C19.7625 19.6625 19.925 19.5875 20.0625 19.45L21.0125 18.5125C21.325 18.2 21.625 17.9625 21.9125 17.8125C22.2 17.6375 22.4875 17.55 22.8 17.55C23.0375 17.55 23.2875 17.6 23.5625 17.7125C23.8375 17.825 24.125 17.9875 24.4375 18.2L28.575 21.1375C28.9 21.3625 29.125 21.625 29.2625 21.9375C29.3875 22.25 29.4625 22.5625 29.4625 22.9125Z" fill="url(#paint2_linear_2_7448)"/>
</g>
<defs>
<filter id="filter0_d_2_7448" x="-2" y="0" width="38" height="38" filterUnits="userSpaceOnUse" color-interpolation-filters="sRGB">
<feFlood flood-opacity="0" result="BackgroundImageFix"/>
<feColorMatrix in="SourceAlpha" type="matrix" values="0 0 0 0 0 0 0 0 0 0 0 0 0 0 0 0 0 0 127 0" result="hardAlpha"/>
<feOffset dy="4"/>
<feGaussianBlur stdDeviation="2"/>
<feComposite in2="hardAlpha" operator="out"/>
<feColorMatrix type="matrix" values="0 0 0 0 0 0 0 0 0 0 0 0 0 0 0 0 0 0 0.25 0"/>
<feBlend mode="normal" in2="BackgroundImageFix" result="effect1_dropShadow_2_7448"/>
<feBlend mode="normal" in="SourceGraphic" in2="effect1_dropShadow_2_7448" result="shape"/>
</filter>
<linearGradient id="paint0_linear_2_7448" x1="31.3749" y1="2.50001" x2="19.4999" y2="10" gradientUnits="userSpaceOnUse">
<stop stop-color="#69AFA9"/>
<stop offset="0.8197" stop-color="#A1D5CF"/>
</linearGradient>
<linearGradient id="paint1_linear_2_7448" x1="-8.625" y1="2.5" x2="50.125" y2="43.125" gradientUnits="userSpaceOnUse">
<stop offset="0.198716" stop-color="#FFB23F"/>
<stop offset="1" stop-color="#FAD8A5"/>
</linearGradient>
<linearGradient id="paint2_linear_2_7448" x1="0.749876" y1="17.5" x2="31.9999" y2="25.625" gradientUnits="userSpaceOnUse">
<stop offset="0.365293" stop-color="#FFB23F"/>
<stop offset="1" stop-color="#FAD8A5"/>
</linearGradient>
</defs>
</svg>
