<svg width="41" height="41" viewBox="0 0 41 41" fill="none" xmlns="http://www.w3.org/2000/svg">
<g clip-path="url(#clip0_103_113)">
<path fill-rule="evenodd" clip-rule="evenodd" d="M20.4394 30.5147C16.8693 30.5147 13.2422 28.3954 11.1254 25.5902C0.969538 25.5902 0.662537 40.0986 0.662537 40.0986H40.2139C40.2139 40.0986 41.0111 25.5259 29.5901 25.5259C27.4757 28.3657 24.0096 30.5147 20.4394 30.5147V30.5147Z" fill="white"/>
<path fill-rule="evenodd" clip-rule="evenodd" d="M28.9461 13.1217C28.9461 17.2959 25.1358 25.278 20.4317 25.278C15.7351 25.278 11.9223 17.2935 11.9223 13.1217C11.9223 8.94992 15.7326 5.56299 20.4317 5.56299C25.1358 5.56546 28.9461 8.95239 28.9461 13.1217V13.1217Z" fill="white"/>
<path fill-rule="evenodd" clip-rule="evenodd" d="M32.7445 9.51915C32.7445 8.73679 31.6551 8.10545 30.3033 8.1005V6.48873C30.3033 6.24858 30.3949 0.625977 20.4619 0.625977C10.5338 0.625977 10.6254 6.24858 10.6254 6.48873V8.15744C10.6007 8.15744 10.5809 8.15001 10.5586 8.15001C9.2142 8.15001 8.13226 8.77145 8.13226 9.54143V16.3599C8.13226 17.1249 9.21668 17.7488 10.5586 17.7488C11.9005 17.7488 12.9898 17.1249 12.9898 16.3599V9.54143C12.9898 9.43497 12.923 9.33841 12.8834 9.23938V7.38003C12.8834 7.2092 12.1703 2.96563 20.4619 2.96563C28.7559 2.96563 27.8943 7.2092 27.8943 7.38003V9.33841C27.8795 9.40031 27.8324 9.45478 27.8324 9.51915V16.4936C27.8324 17.2784 28.9292 17.9147 30.2884 17.9147C30.3181 17.9147 30.3404 17.9048 30.3701 17.9048V20.4524H27.9339V22.854H32.7692L32.7445 9.51915V9.51915Z" fill="white"/>
</g>
<defs>
<clipPath id="clip0_103_113">
<rect width="39.5633" height="39.4721" fill="white" transform="translate(0.662476 0.625977)"/>
</clipPath>
</defs>
</svg>
