<svg width="46" height="46" viewBox="0 0 46 46" fill="none" xmlns="http://www.w3.org/2000/svg">
<g clip-path="url(#clip0_103_106)">
<path d="M45.3803 23.34C45.3803 10.9961 35.353 0.97998 22.998 0.97998C10.6429 0.97998 0.615601 10.9961 0.615601 23.34C0.615601 30.1386 3.70437 36.2658 8.53896 40.3785C8.58373 40.4233 8.62849 40.4233 8.62849 40.4681C9.03137 40.7814 9.43426 41.0948 9.8819 41.4081C10.1057 41.5424 10.2848 41.7187 10.5086 41.8978C14.2075 44.4056 18.5738 45.7457 23.0427 45.7447C27.5116 45.7457 31.878 44.4056 35.5769 41.8978C35.8007 41.7635 35.9797 41.5872 36.2036 41.4501C36.6065 41.1396 37.0541 40.8262 37.457 40.5128C37.5018 40.4681 37.5465 40.4681 37.5465 40.4233C42.2916 36.263 45.3803 30.1386 45.3803 23.34V23.34ZM22.998 42.9273C18.7901 42.9273 14.9403 41.5844 11.762 39.349C11.8068 38.9908 11.8963 38.6355 11.9858 38.2774C12.2526 37.3069 12.6438 36.3749 13.1497 35.5048C13.6421 34.6543 14.2241 33.8933 14.9403 33.2218C15.6118 32.5503 16.4176 31.9264 17.2233 31.434C18.0739 30.9416 18.9691 30.5835 19.954 30.3149C20.9465 30.0474 21.9701 29.9128 22.998 29.9148C26.0494 29.8932 28.9887 31.0637 31.1899 33.177C32.2195 34.2066 33.0253 35.4153 33.6072 36.8002C33.9206 37.6059 34.1444 38.4565 34.2787 39.349C30.975 41.6716 27.0364 42.9209 22.998 42.9273ZM16.149 22.2236C15.7545 21.3206 15.5562 20.3441 15.567 19.3587C15.567 18.3767 15.7461 17.3919 16.149 16.4966C16.5518 15.6013 17.089 14.7983 17.7605 14.1268C18.432 13.4554 19.2377 12.921 20.133 12.5181C21.0283 12.1152 22.0131 11.9362 22.998 11.9362C24.0276 11.9362 24.9676 12.1152 25.8629 12.5181C26.7582 12.921 27.564 13.4582 28.2354 14.1268C28.9069 14.7983 29.4441 15.6041 29.847 16.4966C30.2499 17.3919 30.4289 18.3767 30.4289 19.3587C30.4289 20.3883 30.2499 21.3284 29.847 22.2209C29.4582 23.1029 28.9121 23.9068 28.2354 24.5934C27.5487 25.269 26.7447 25.8141 25.8629 26.2021C24.0131 26.9623 21.9381 26.9623 20.0883 26.2021C19.2064 25.8141 18.4025 25.269 17.7157 24.5934C17.0381 23.9168 16.5051 23.1097 16.149 22.2209V22.2236ZM36.9198 37.0688C36.9198 36.9792 36.875 36.9345 36.875 36.8449C36.4348 35.4444 35.7859 34.1183 34.9502 32.9112C34.1137 31.6953 33.0857 30.6229 31.9062 29.7357C31.0053 29.058 30.0289 28.4872 28.9964 28.0347C29.4661 27.7248 29.9013 27.3656 30.2946 26.9631C30.962 26.3042 31.5481 25.5678 32.0405 24.7696C33.0319 23.1408 33.5439 21.2654 33.5177 19.3587C33.5315 17.9473 33.2574 16.5478 32.7119 15.2459C32.1734 13.9915 31.3983 12.8526 30.4289 11.8914C29.461 10.9402 28.3218 10.1808 27.0716 9.65315C25.7675 9.10868 24.3663 8.83547 22.9532 8.85018C21.54 8.83636 20.1387 9.11052 18.8349 9.65595C17.5738 10.1825 16.4319 10.958 15.4775 11.9362C14.5264 12.903 13.7669 14.0413 13.2393 15.2907C12.6938 16.5926 12.4196 17.992 12.4335 19.4035C12.4335 20.3883 12.5678 21.3284 12.8364 22.2209C13.105 23.1609 13.4631 24.0114 13.9555 24.8144C14.4031 25.6202 15.0298 26.3364 15.7013 27.0079C16.1042 27.4108 16.5518 27.7661 17.0443 28.0794C16.0086 28.544 15.0319 29.1301 14.1346 29.8253C12.9707 30.7206 11.9411 31.7921 11.0906 32.956C10.2463 34.158 9.59675 35.4855 9.16567 36.8897C9.1209 36.9792 9.1209 37.0688 9.1209 37.1135C5.58449 33.5351 3.39101 28.7061 3.39101 23.34C3.39101 12.5629 12.2097 3.7526 22.998 3.7526C33.7863 3.7526 42.6049 12.5629 42.6049 23.34C42.5991 28.4878 40.555 33.4239 36.9198 37.0688V37.0688Z" fill="white"/>
</g>
<defs>
<clipPath id="clip0_103_106">
<rect width="44.7647" height="44.7647" fill="white" transform="translate(0.615601 0.97998)"/>
</clipPath>
</defs>
</svg>
